{
    "asset": {
        "generator": "FBX2glTF",
        "version": "2.0"
    },
    "scene": 0,
    "buffers": [
        {
            "byteLength": 62448,
            "uri": "buffer.bin"
        }
    ],
    "bufferViews": [
        {
            "buffer": 0,
            "byteLength": 100,
            "byteOffset": 0
        },
        {
            "buffer": 0,
            "byteLength": 300,
            "byteOffset": 100
        },
        {
            "buffer": 0,
            "byteLength": 400,
            "byteOffset": 400
        },
        {
            "buffer": 0,
            "byteLength": 7200,
            "byteOffset": 800,
            "target": 34963
        },
        {
            "buffer": 0,
            "byteLength": 8808,
            "byteOffset": 8000,
            "target": 34962
        },
        {
            "buffer": 0,
            "byteLength": 8808,
            "byteOffset": 16808,
            "target": 34962
        },
        {
            "buffer": 0,
            "byteLength": 11744,
            "byteOffset": 25616,
            "target": 34962
        },
        {
            "buffer": 0,
            "byteLength": 5872,
            "byteOffset": 37360,
            "target": 34962
        },
        {
            "buffer": 0,
            "byteLength": 5872,
            "byteOffset": 43232,
            "target": 34962
        },
        {
            "buffer": 0,
            "byteLength": 11744,
            "byteOffset": 49104,
            "target": 34962
        },
        {
            "buffer": 0,
            "byteLength": 1600,
            "byteOffset": 60848
        }
    ],
    "scenes": [
        {
            "name": "Root Scene",
            "nodes": [
                0
            ]
        }
    ],
    "accessors": [
        {
            "componentType": 5126,
            "type": "SCALAR",
            "count": 25,
            "bufferView": 0,
            "byteOffset": 0,
            "min": [
                0.0
            ],
            "max": [
                1.0
            ]
        },
        {
            "componentType": 5126,
            "type": "VEC3",
            "count": 25,
            "bufferView": 1,
            "byteOffset": 0
        },
        {
            "componentType": 5126,
            "type": "VEC4",
            "count": 25,
            "bufferView": 2,
            "byteOffset": 0
        },
        {
            "componentType": 5123,
            "type": "SCALAR",
            "count": 3600,
            "bufferView": 3,
            "byteOffset": 0
        },
        {
            "componentType": 5126,
            "type": "VEC3",
            "count": 734,
            "bufferView": 4,
            "byteOffset": 0,
            "min": [
                0.276297926902771,
                -0.21203351020813,
                0.888423919677734
            ],
            "max": [
                0.380232572555542,
                -0.0728878602385521,
                1.07207000255585
            ]
        },
        {
            "componentType": 5126,
            "type": "VEC3",
            "count": 734,
            "bufferView": 5,
            "byteOffset": 0
        },
        {
            "componentType": 5126,
            "type": "VEC4",
            "count": 734,
            "bufferView": 6,
            "byteOffset": 0
        },
        {
            "componentType": 5126,
            "type": "VEC2",
            "count": 734,
            "bufferView": 7,
            "byteOffset": 0
        },
        {
            "componentType": 5123,
            "type": "VEC4",
            "count": 734,
            "bufferView": 8,
            "byteOffset": 0
        },
        {
            "componentType": 5126,
            "type": "VEC4",
            "count": 734,
            "bufferView": 9,
            "byteOffset": 0
        },
        {
            "componentType": 5126,
            "type": "MAT4",
            "count": 25,
            "bufferView": 10,
            "byteOffset": 0
        }
    ],
    "samplers": [
        {}
    ],
    "materials": [
        {
            "name": "default3",
            "alphaMode": "OPAQUE",
            "extras": {
                "fromFBX": {
                    "shadingModel": "Phong",
                    "isTruePBR": false
                }
            },
            "pbrMetallicRoughness": {
                "baseColorFactor": [
                    1.0,
                    1.0,
                    1.0,
                    1.0
                ],
                "metallicFactor": 0.400000005960464,
                "roughnessFactor": 0.70710676908493
            }
        }
    ],
    "meshes": [
        {
            "name": "hands:Lhand",
            "primitives": [
                {
                    "material": 0,
                    "mode": 4,
                    "attributes": {
                        "COLOR_0": 6,
                        "JOINTS_0": 8,
                        "NORMAL": 5,
                        "POSITION": 4,
                        "TEXCOORD_0": 7,
                        "WEIGHTS_0": 9
                    },
                    "indices": 3
                }
            ]
        }
    ],
    "skins": [
        {
            "joints": [
                4,
                6,
                7,
                8,
                10,
                11,
                12,
                14,
                15,
                16,
                18,
                19,
                20,
                22,
                23,
                24,
                25,
                3,
                5,
                9,
                13,
                17,
                21,
                26,
                27
            ],
            "inverseBindMatrices": 10,
            "skeleton": 3
        }
    ],
    "animations": [
        {
            "name": "Take 001",
            "channels": [
                {
                    "sampler": 0,
                    "target": {
                        "node": 27,
                        "path": "translation"
                    }
                },
                {
                    "sampler": 1,
                    "target": {
                        "node": 27,
                        "path": "rotation"
                    }
                }
            ],
            "samplers": [
                {
                    "input": 0,
                    "interpolation": "LINEAR",
                    "output": 1
                },
                {
                    "input": 0,
                    "interpolation": "LINEAR",
                    "output": 2
                }
            ]
        }
    ],
    "nodes": [
        {
            "name": "RootNode",
            "translation": [
                0.0,
                0.0,
                0.0
            ],
            "rotation": [
                0.0,
                0.0,
                0.0,
                1.0
            ],
            "scale": [
                1.0,
                1.0,
                1.0
            ],
            "children": [
                1,
                3
            ]
        },
        {
            "name": "hands:hands_geom",
            "translation": [
                0.0,
                0.0,
                0.0
            ],
            "rotation": [
                0.0,
                0.0,
                0.0,
                1.0
            ],
            "scale": [
                1.0,
                1.0,
                1.0
            ],
            "children": [
                2
            ]
        },
        {
            "name": "hands:Lhand",
            "translation": [
                0.0,
                0.0,
                0.0
            ],
            "rotation": [
                0.0,
                0.0,
                0.0,
                1.0
            ],
            "scale": [
                1.0,
                1.0,
                1.0
            ],
            "mesh": 0,
            "skin": 0
        },
        {
            "name": "hands:l_hand_world",
            "translation": [
                0.0177497714757919,
                0.0490148775279522,
                -0.0717037692666054
            ],
            "rotation": [
                0.765030086040497,
                0.54065990447998,
                -0.16959322988987,
                -0.306029379367828
            ],
            "scale": [
                1.0,
                1.0,
                1.0
            ],
            "children": [
                4
            ]
        },
        {
            "name": "hands:b_l_hand",
            "translation": [
                0.0,
                0.0,
                0.0
            ],
            "rotation": [
                -0.312574803829193,
                -0.769651830196381,
                -0.0187509376555681,
                0.5564004778862
            ],
            "scale": [
                1.0,
                1.0,
                1.0
            ],
            "children": [
                5,
                6,
                10,
                14,
                18,
                22,
                27
            ]
        },
        {
            "name": "hands:b_l_hand_ignore",
            "translation": [
                -0.136113926768303,
                0.0,
                1.50990332937208e-16
            ],
            "rotation": [
                0.227042481303215,
                -3.37884193035277e-18,
                7.87711844721425e-19,
                0.973884880542755
            ],
            "scale": [
                1.0,
                1.0,
                1.0
            ]
        },
        {
            "name": "hands:b_l_thumb1",
            "translation": [
                -0.0262984056025743,
                -0.0414702966809273,
                0.0205641482025385
            ],
            "rotation": [
                -0.245962306857109,
                0.945037007331848,
                -0.0319942869246006,
                -0.213035210967064
            ],
            "scale": [
                1.0,
                1.0,
                1.0
            ],
            "children": [
                7
            ]
        },
        {
            "name": "hands:b_l_thumb2",
            "translation": [
                0.0325882397592068,
                0.0,
                0.0
            ],
            "rotation": [
                4.52873973834494e-17,
                6.51298646471949e-18,
                0.142349988222122,
                0.98981636762619
            ],
            "scale": [
                1.0,
                1.0,
                1.0
            ],
            "children": [
                8
            ]
        },
        {
            "name": "hands:b_l_thumb3",
            "translation": [
                0.0263715349137783,
                1.42108543975646e-16,
                -1.06581407981735e-16
            ],
            "rotation": [
                -1.43235336023511e-16,
                -1.37533983725322e-16,
                -0.00872074533253908,
                0.999961972236633
            ],
            "scale": [
                1.0,
                1.0,
                1.0
            ],
            "children": [
                9
            ]
        },
        {
            "name": "hands:b_l_thumb_ignore",
            "translation": [
                0.0340795665979385,
                -6.88338280561553e-17,
                4.44089199923895e-18
            ],
            "rotation": [
                -5.20417042793042e-18,
                9.25349152967305e-35,
                -1.77809156287623e-17,
                1.0
            ],
            "scale": [
                1.0,
                1.0,
                1.0
            ]
        },
        {
            "name": "hands:b_l_index1",
            "translation": [
                -0.0870787054300308,
                -0.0350999124348164,
                -0.00681396340951324
            ],
            "rotation": [
                -0.0109450528398156,
                0.732941329479218,
                0.660952091217041,
                -0.160684466362
            ],
            "scale": [
                1.0,
                1.0,
                1.0
            ],
            "children": [
                11
            ]
        },
        {
            "name": "hands:b_l_index2",
            "translation": [
                0.0415747202932835,
                8.88178399847791e-18,
                6.88338280561553e-17
            ],
            "rotation": [
                -4.14513466309903e-16,
                3.51792370631616e-16,
                0.186246767640114,
                0.982502996921539
            ],
            "scale": [
                1.0,
                1.0,
                1.0
            ],
            "children": [
                12
            ]
        },
        {
            "name": "hands:b_l_index3",
            "translation": [
                0.0221530050039291,
                7.10542719878232e-17,
                2.22044599961948e-18
            ],
            "rotation": [
                4.48905068611236e-16,
                5.26504893578085e-17,
                0.0595958903431892,
                0.998222589492798
            ],
            "scale": [
                1.0,
                1.0,
                1.0
            ],
            "children": [
                13
            ]
        },
        {
            "name": "hands:b_l_index_ignore",
            "translation": [
                0.0291218087077141,
                -1.77635673352113e-16,
                -7.32747159194912e-17
            ],
            "rotation": [
                -1.25767452008319e-17,
                2.60208521396521e-17,
                8.32667268468867e-17,
                1.0
            ],
            "scale": [
                1.0,
                1.0,
                1.0
            ]
        },
        {
            "name": "hands:b_l_middle1",
            "translation": [
                -0.091422326862812,
                -0.00953215546905994,
                -0.0108387805521488
            ],
            "rotation": [
                0.0336518101394176,
                0.648008823394775,
                0.75659453868866,
                -0.0807268694043159
            ],
            "scale": [
                1.0,
                1.0,
                1.0
            ],
            "children": [
                15
            ]
        },
        {
            "name": "hands:b_l_middle2",
            "translation": [
                0.0459674261510372,
                1.42108543975646e-16,
                7.10542719878232e-17
            ],
            "rotation": [
                -3.17153858226158e-16,
                -1.05438925972011e-16,
                0.235581919550896,
                0.971854507923126
            ],
            "scale": [
                1.0,
                1.0,
                1.0
            ],
            "children": [
                16
            ]
        },
        {
            "name": "hands:b_l_middle3",
            "translation": [
                0.0295905973762274,
                3.55271359939116e-17,
                4.44089199923895e-18
            ],
            "rotation": [
                -7.48710355353756e-17,
                -1.30106523864416e-16,
                0.0657755583524704,
                0.997834444046021
            ],
            "scale": [
                1.0,
                1.0,
                1.0
            ],
            "children": [
                17
            ]
        },
        {
            "name": "hands:b_l_middle_ignore",
            "translation": [
                0.0264696106314659,
                -1.77635679969558e-17,
                -2.1316281596347e-16
            ],
            "rotation": [
                1.15555796663234e-33,
                -1.38777878078145e-17,
                8.32667268468867e-17,
                1.0
            ],
            "scale": [
                1.0,
                1.0,
                1.0
            ]
        },
        {
            "name": "hands:b_l_ring1",
            "translation": [
                -0.089531734585762,
                0.012713978998363,
                -0.00185332656838
            ],
            "rotation": [
                0.101800978183746,
                0.569299221038818,
                0.815209686756134,
                -0.0311147887259722
            ],
            "scale": [
                1.0,
                1.0,
                1.0
            ],
            "children": [
                19
            ]
        },
        {
            "name": "hands:b_l_ring2",
            "translation": [
                0.0385720245540142,
                1.77635679969558e-17,
                7.10542719878232e-17
            ],
            "rotation": [
                2.95654309140272e-16,
                1.46299596824212e-16,
                0.202904611825943,
                0.979198515415192
            ],
            "scale": [
                1.0,
                1.0,
                1.0
            ],
            "children": [
                20
            ]
        },
        {
            "name": "hands:b_l_ring3",
            "translation": [
                0.0257752910256386,
                0.0,
                -1.33226755014085e-16
            ],
            "rotation": [
                4.65519619871629e-16,
                9.49235810321106e-17,
                0.0839436128735542,
                0.996470510959625
            ],
            "scale": [
                1.0,
                1.0,
                1.0
            ],
            "children": [
                21
            ]
        },
        {
            "name": "hands:b_l_ring_ignore",
            "translation": [
                0.0242149066179991,
                -1.42108543975646e-16,
                8.88178399847791e-18
            ],
            "rotation": [
                -7.70371977754894e-34,
                2.77555756156289e-17,
                2.77555756156289e-17,
                1.0
            ],
            "scale": [
                1.0,
                1.0,
                1.0
            ]
        },
        {
            "name": "hands:b_l_pinky0",
            "translation": [
                -0.0312715023756027,
                0.0190680306404829,
                0.0115075903013349
            ],
            "rotation": [
                -0.469321578741074,
                0.0831114947795868,
                -0.0867283567786217,
                0.874818801879883
            ],
            "scale": [
                1.0,
                1.0,
                1.0
            ],
            "children": [
                23
            ]
        },
        {
            "name": "hands:b_l_pinky1",
            "translation": [
                -0.0535706467926502,
                0.00243839994072914,
                -0.00146303989458829
            ],
            "rotation": [
                0.0189033914357424,
                0.00674271862953901,
                0.992866396903992,
                -0.117531023919582
            ],
            "scale": [
                1.0,
                1.0,
                1.0
            ],
            "children": [
                24
            ]
        },
        {
            "name": "hands:b_l_pinky2",
            "translation": [
                0.0333559513092041,
                1.42108543975646e-16,
                -1.46549431838982e-16
            ],
            "rotation": [
                2.2809007428421e-17,
                3.19451593914263e-17,
                0.164582252502441,
                0.986363351345062
            ],
            "scale": [
                1.0,
                1.0,
                1.0
            ],
            "children": [
                25
            ]
        },
        {
            "name": "hands:b_l_pinky3",
            "translation": [
                0.017418222501874,
                1.24344979287413e-16,
                7.99360543319399e-17
            ],
            "rotation": [
                8.1051384965237e-17,
                -2.46263341529841e-16,
                0.0469939857721329,
                0.998895168304443
            ],
            "scale": [
                1.0,
                1.0,
                1.0
            ],
            "children": [
                26
            ]
        },
        {
            "name": "hands:b_l_pinky_ignore",
            "translation": [
                0.0194412376731634,
                -7.10542719878232e-17,
                7.10542719878232e-17
            ],
            "rotation": [
                1.38777878078145e-17,
                -5.55111512312578e-17,
                -2.77555756156289e-17,
                1.0
            ],
            "scale": [
                1.0,
                1.0,
                1.0
            ]
        },
        {
            "name": "hands:b_l_grip",
            "translation": [
                -0.0729386284947395,
                -0.015145068988204,
                0.0193356964737177
            ],
            "rotation": [
                0.301715075969696,
                0.771044194698334,
                0.0285201352089643,
                0.560040593147278
            ],
            "scale": [
                1.0,
                1.0,
                1.0
            ]
        }
    ]
}