{
    "asset": {
        "generator": "FBX2glTF",
        "version": "2.0"
    },
    "scene": 0,
    "buffers": [
        {
            "byteLength": 62016,
            "uri": "buffer.bin"
        }
    ],
    "bufferViews": [
        {
            "buffer": 0,
            "byteLength": 100,
            "byteOffset": 0
        },
        {
            "buffer": 0,
            "byteLength": 300,
            "byteOffset": 100
        },
        {
            "buffer": 0,
            "byteLength": 400,
            "byteOffset": 400
        },
        {
            "buffer": 0,
            "byteLength": 7200,
            "byteOffset": 800,
            "target": 34963
        },
        {
            "buffer": 0,
            "byteLength": 8736,
            "byteOffset": 8000,
            "target": 34962
        },
        {
            "buffer": 0,
            "byteLength": 8736,
            "byteOffset": 16736,
            "target": 34962
        },
        {
            "buffer": 0,
            "byteLength": 11648,
            "byteOffset": 25472,
            "target": 34962
        },
        {
            "buffer": 0,
            "byteLength": 5824,
            "byteOffset": 37120,
            "target": 34962
        },
        {
            "buffer": 0,
            "byteLength": 5824,
            "byteOffset": 42944,
            "target": 34962
        },
        {
            "buffer": 0,
            "byteLength": 11648,
            "byteOffset": 48768,
            "target": 34962
        },
        {
            "buffer": 0,
            "byteLength": 1600,
            "byteOffset": 60416
        }
    ],
    "scenes": [
        {
            "name": "Root Scene",
            "nodes": [
                0
            ]
        }
    ],
    "accessors": [
        {
            "componentType": 5126,
            "type": "SCALAR",
            "count": 25,
            "bufferView": 0,
            "byteOffset": 0,
            "min": [
                0.0
            ],
            "max": [
                1.0
            ]
        },
        {
            "componentType": 5126,
            "type": "VEC3",
            "count": 25,
            "bufferView": 1,
            "byteOffset": 0
        },
        {
            "componentType": 5126,
            "type": "VEC4",
            "count": 25,
            "bufferView": 2,
            "byteOffset": 0
        },
        {
            "componentType": 5123,
            "type": "SCALAR",
            "count": 3600,
            "bufferView": 3,
            "byteOffset": 0
        },
        {
            "componentType": 5126,
            "type": "VEC3",
            "count": 728,
            "bufferView": 4,
            "byteOffset": 0,
            "min": [
                -0.380232572555542,
                -0.21184179186821,
                0.888423919677734
            ],
            "max": [
                -0.276297926902771,
                -0.0728878602385521,
                1.07207000255585
            ]
        },
        {
            "componentType": 5126,
            "type": "VEC3",
            "count": 728,
            "bufferView": 5,
            "byteOffset": 0
        },
        {
            "componentType": 5126,
            "type": "VEC4",
            "count": 728,
            "bufferView": 6,
            "byteOffset": 0
        },
        {
            "componentType": 5126,
            "type": "VEC2",
            "count": 728,
            "bufferView": 7,
            "byteOffset": 0
        },
        {
            "componentType": 5123,
            "type": "VEC4",
            "count": 728,
            "bufferView": 8,
            "byteOffset": 0
        },
        {
            "componentType": 5126,
            "type": "VEC4",
            "count": 728,
            "bufferView": 9,
            "byteOffset": 0
        },
        {
            "componentType": 5126,
            "type": "MAT4",
            "count": 25,
            "bufferView": 10,
            "byteOffset": 0
        }
    ],
    "samplers": [
        {}
    ],
    "materials": [
        {
            "name": "default1",
            "alphaMode": "OPAQUE",
            "extras": {
                "fromFBX": {
                    "shadingModel": "Phong",
                    "isTruePBR": false
                }
            },
            "pbrMetallicRoughness": {
                "baseColorFactor": [
                    1.0,
                    1.0,
                    1.0,
                    1.0
                ],
                "metallicFactor": 0.400000005960464,
                "roughnessFactor": 0.70710676908493
            }
        }
    ],
    "meshes": [
        {
            "name": "hands:Rhand",
            "primitives": [
                {
                    "material": 0,
                    "mode": 4,
                    "attributes": {
                        "COLOR_0": 6,
                        "JOINTS_0": 8,
                        "NORMAL": 5,
                        "POSITION": 4,
                        "TEXCOORD_0": 7,
                        "WEIGHTS_0": 9
                    },
                    "indices": 3
                }
            ]
        }
    ],
    "skins": [
        {
            "joints": [
                4,
                22,
                23,
                24,
                13,
                14,
                15,
                9,
                10,
                11,
                5,
                6,
                7,
                17,
                18,
                19,
                20,
                3,
                21,
                8,
                12,
                16,
                25,
                26,
                27
            ],
            "inverseBindMatrices": 10,
            "skeleton": 3
        }
    ],
    "animations": [
        {
            "name": "Take 001",
            "channels": [
                {
                    "sampler": 0,
                    "target": {
                        "node": 27,
                        "path": "translation"
                    }
                },
                {
                    "sampler": 1,
                    "target": {
                        "node": 27,
                        "path": "rotation"
                    }
                }
            ],
            "samplers": [
                {
                    "input": 0,
                    "interpolation": "LINEAR",
                    "output": 1
                },
                {
                    "input": 0,
                    "interpolation": "LINEAR",
                    "output": 2
                }
            ]
        }
    ],
    "nodes": [
        {
            "name": "RootNode",
            "translation": [
                0.0,
                0.0,
                0.0
            ],
            "rotation": [
                0.0,
                0.0,
                0.0,
                1.0
            ],
            "scale": [
                1.0,
                1.0,
                1.0
            ],
            "children": [
                1,
                3
            ]
        },
        {
            "name": "hands:hands_geom",
            "translation": [
                0.0,
                0.0,
                0.0
            ],
            "rotation": [
                0.0,
                0.0,
                0.0,
                1.0
            ],
            "scale": [
                1.0,
                1.0,
                1.0
            ],
            "children": [
                2
            ]
        },
        {
            "name": "hands:Rhand",
            "translation": [
                0.0,
                0.0,
                0.0
            ],
            "rotation": [
                0.0,
                0.0,
                0.0,
                1.0
            ],
            "scale": [
                1.0,
                1.0,
                1.0
            ],
            "mesh": 0,
            "skin": 0
        },
        {
            "name": "hands:r_hand_world",
            "translation": [
                -0.0177499987185001,
                0.0490099973976612,
                -0.0716999992728233
            ],
            "rotation": [
                0.759948015213013,
                -0.541513979434967,
                0.170992776751518,
                -0.316232621669769
            ],
            "scale": [
                1.0,
                1.0,
                1.0
            ],
            "children": [
                4
            ]
        },
        {
            "name": "hands:b_r_hand",
            "translation": [
                0.0,
                0.0,
                0.0
            ],
            "rotation": [
                -0.5564004778862,
                -0.0187509376555681,
                0.769651830196381,
                -0.312574803829193
            ],
            "scale": [
                1.0,
                1.0,
                1.0
            ],
            "children": [
                5,
                9,
                13,
                17,
                22,
                26,
                27
            ]
        },
        {
            "name": "hands:b_r_ring1",
            "translation": [
                0.0895310938358307,
                -0.012713965959847,
                0.00185330607928336
            ],
            "rotation": [
                0.101800978183746,
                0.569299221038818,
                0.815209686756134,
                -0.0311147887259722
            ],
            "scale": [
                1.0,
                1.0,
                1.0
            ],
            "children": [
                6
            ]
        },
        {
            "name": "hands:b_r_ring2",
            "translation": [
                -0.0385719798505306,
                1.93449078977892e-08,
                -1.17579560310332e-07
            ],
            "rotation": [
                1.7996451103125e-16,
                -4.7744249534185e-17,
                0.202904611825943,
                0.979198515415192
            ],
            "scale": [
                1.0,
                1.0,
                1.0
            ],
            "children": [
                7
            ]
        },
        {
            "name": "hands:b_r_ring3",
            "translation": [
                -0.0257753673940897,
                2.30057622729873e-07,
                2.65076948835485e-07
            ],
            "rotation": [
                -3.75707684152851e-16,
                -3.79608320505794e-18,
                0.0839436128735542,
                0.996470510959625
            ],
            "scale": [
                1.0,
                1.0,
                1.0
            ],
            "children": [
                8
            ]
        },
        {
            "name": "hands:b_r_ring_ignore",
            "translation": [
                -0.0242141932249069,
                -3.78995714811481e-08,
                1.87037407783919e-08
            ],
            "rotation": [
                1.38777878078145e-17,
                -1.15555796663234e-33,
                -8.32667268468867e-17,
                1.0
            ],
            "scale": [
                1.0,
                1.0,
                1.0
            ]
        },
        {
            "name": "hands:b_r_middle1",
            "translation": [
                0.0914220213890076,
                0.00953263510018587,
                0.0108387870714068
            ],
            "rotation": [
                0.0336518101394176,
                0.648008823394775,
                0.75659453868866,
                -0.0807268694043159
            ],
            "scale": [
                1.0,
                1.0,
                1.0
            ],
            "children": [
                10
            ]
        },
        {
            "name": "hands:b_r_middle2",
            "translation": [
                -0.0459670200943947,
                -6.43838038438815e-10,
                -3.98289508041216e-08
            ],
            "rotation": [
                -1.97613090996894e-16,
                -3.33496247212686e-16,
                0.235581919550896,
                0.971854507923126
            ],
            "scale": [
                1.0,
                1.0,
                1.0
            ],
            "children": [
                11
            ]
        },
        {
            "name": "hands:b_r_middle3",
            "translation": [
                -0.0295902341604233,
                -1.77992262706539e-07,
                -6.36197938774785e-08
            ],
            "rotation": [
                -1.8256384835122e-18,
                2.76954693635984e-17,
                0.0657755583524704,
                0.997834444046021
            ],
            "scale": [
                1.0,
                1.0,
                1.0
            ],
            "children": [
                12
            ]
        },
        {
            "name": "hands:b_r_middle_ignore",
            "translation": [
                -0.0264695230871439,
                4.06842303846133e-07,
                1.9527813321929e-07
            ],
            "rotation": [
                -1.38777878078145e-17,
                3.85185988877447e-34,
                -2.77555756156289e-17,
                1.0
            ],
            "scale": [
                1.0,
                1.0,
                1.0
            ]
        },
        {
            "name": "hands:b_r_index1",
            "translation": [
                0.0870779678225517,
                0.0350999720394611,
                0.00681471033021808
            ],
            "rotation": [
                -0.0109450528398156,
                0.732941329479218,
                0.660952091217041,
                -0.160684466362
            ],
            "scale": [
                1.0,
                1.0,
                1.0
            ],
            "children": [
                14
            ]
        },
        {
            "name": "hands:b_r_index2",
            "translation": [
                -0.0415748916566372,
                -2.62262801697943e-07,
                -3.89787146559684e-07
            ],
            "rotation": [
                -1.03126936307591e-16,
                4.6882211530619e-17,
                0.186246767640114,
                0.982502996921539
            ],
            "scale": [
                1.0,
                1.0,
                1.0
            ],
            "children": [
                15
            ]
        },
        {
            "name": "hands:b_r_index3",
            "translation": [
                -0.0221529379487038,
                -2.22783071990307e-07,
                -3.538804804748e-08
            ],
            "rotation": [
                -4.72325671877883e-18,
                2.81746881796748e-17,
                0.0595958903431892,
                0.998222589492798
            ],
            "scale": [
                1.0,
                1.0,
                1.0
            ],
            "children": [
                16
            ]
        },
        {
            "name": "hands:b_r_index_ignore",
            "translation": [
                -0.029121782630682,
                2.65862496462432e-07,
                1.04564446701261e-06
            ],
            "rotation": [
                -1.38777878078145e-17,
                3.07913416985883e-17,
                4.27315706410918e-34,
                1.0
            ],
            "scale": [
                1.0,
                1.0,
                1.0
            ]
        },
        {
            "name": "hands:b_r_pinky0",
            "translation": [
                0.0312747247517109,
                -0.019069267436862,
                -0.0115091670304537
            ],
            "rotation": [
                -0.469321578741074,
                0.0831114947795868,
                -0.0867283567786217,
                0.874818801879883
            ],
            "scale": [
                1.0,
                1.0,
                1.0
            ],
            "children": [
                18
            ]
        },
        {
            "name": "hands:b_r_pinky1",
            "translation": [
                0.0535662099719048,
                -0.00243950681760907,
                0.00146448775194585
            ],
            "rotation": [
                0.0189033914357424,
                0.00674271862953901,
                0.992866396903992,
                -0.117531023919582
            ],
            "scale": [
                1.0,
                1.0,
                1.0
            ],
            "children": [
                19
            ]
        },
        {
            "name": "hands:b_r_pinky2",
            "translation": [
                -0.0333558470010757,
                4.1931349414881e-07,
                3.04474525592013e-07
            ],
            "rotation": [
                -4.56493848543924e-17,
                1.0494025517665e-16,
                0.164582252502441,
                0.986363351345062
            ],
            "scale": [
                1.0,
                1.0,
                1.0
            ],
            "children": [
                20
            ]
        },
        {
            "name": "hands:b_r_pinky3",
            "translation": [
                -0.0174184180796146,
                -4.90372940475936e-07,
                -8.0218643461194e-07
            ],
            "rotation": [
                4.89280938832587e-17,
                1.41233241303778e-16,
                0.0469939857721329,
                0.998895168304443
            ],
            "scale": [
                1.0,
                1.0,
                1.0
            ],
            "children": [
                21
            ]
        },
        {
            "name": "hands:b_r_pinky_ignore",
            "translation": [
                -0.0194410793483257,
                1.8051704842037e-07,
                6.84117026139575e-07
            ],
            "rotation": [
                -1.38777878078145e-17,
                -2.77555756156289e-17,
                -3.85185988877447e-34,
                1.0
            ],
            "scale": [
                1.0,
                1.0,
                1.0
            ]
        },
        {
            "name": "hands:b_r_thumb1",
            "translation": [
                0.026297215372324,
                0.0414710864424706,
                -0.0205638688057661
            ],
            "rotation": [
                -0.245962306857109,
                0.945037007331848,
                -0.0319942869246006,
                -0.213035210967064
            ],
            "scale": [
                1.0,
                1.0,
                1.0
            ],
            "children": [
                23
            ]
        },
        {
            "name": "hands:b_r_thumb2",
            "translation": [
                -0.0325856097042561,
                2.71548151431489e-06,
                -2.76819378086657e-07
            ],
            "rotation": [
                -1.99302815847548e-17,
                1.93421680806304e-16,
                0.142349988222122,
                0.98981636762619
            ],
            "scale": [
                1.0,
                1.0,
                1.0
            ],
            "children": [
                24
            ]
        },
        {
            "name": "hands:b_r_thumb3",
            "translation": [
                -0.0263750832527876,
                -3.13833993459411e-06,
                2.46260754011018e-07
            ],
            "rotation": [
                -1.63198989382899e-16,
                8.46931634172875e-17,
                -0.00872074533253908,
                0.999961972236633
            ],
            "scale": [
                1.0,
                1.0,
                1.0
            ],
            "children": [
                25
            ]
        },
        {
            "name": "hands:b_r_thumb_ignore",
            "translation": [
                -0.034079235047102,
                2.7444755801298e-07,
                1.22323655205037e-07
            ],
            "rotation": [
                7.86046575051991e-18,
                -2.77555756156289e-17,
                -2.05998412772246e-18,
                1.0
            ],
            "scale": [
                1.0,
                1.0,
                1.0
            ]
        },
        {
            "name": "hands:b_r_hand_ignore",
            "translation": [
                0.136113286018372,
                3.96659231682861e-07,
                6.81397125390504e-07
            ],
            "rotation": [
                0.227042481303215,
                -9.45254192986194e-18,
                -4.05461006826914e-17,
                0.973884880542755
            ],
            "scale": [
                1.0,
                1.0,
                1.0
            ]
        },
        {
            "name": "hands:b_r_grip",
            "translation": [
                0.0721581876277924,
                0.0139621393755078,
                -0.0189916957169771
            ],
            "rotation": [
                -0.560763299465179,
                -0.0708296820521355,
                0.748326897621155,
                0.347180783748627
            ],
            "scale": [
                1.0,
                1.0,
                1.0
            ]
        }
    ]
}