{
  "accessors": [
    {
      "bufferView": 2,
      "componentType": 5126,
      "count": 2056,
      "max": [
        0.72962498664855957,
        0.096883296966552734,
        -0.38907399773597717
      ],
      "min": [
        -0.72962498664855957,
        -0.16494700312614441,
        -0.61599302291870117
      ],
      "type": "VEC3"
    },
    {
      "bufferView": 2,
      "byteOffset": 24672,
      "componentType": 5126,
      "count": 2056,
      "max": [
        0.99675136804580688,
        0.99998754262924194,
        0.94433623552322388
      ],
      "min": [
        -0.99675136804580688,
        -0.95831286907196045,
        -0.99968433380126953
      ],
      "type": "VEC3"
    },
    {
      "bufferView": 3,
      "componentType": 5126,
      "count": 2056,
      "max": [
        1,
        0.98240005970001221,
        0.98943698406219482,
        1
      ],
      "min": [
        -1,
        -0.96732795238494873,
        -0.98947232961654663,
        -1
      ],
      "type": "VEC4"
    },
    {
      "bufferView": 1,
      "componentType": 5126,
      "count": 2056,
      "max": [
        0.97268199920654297,
        0.98971599340438843
      ],
      "min": [
        0.0010000000474974513,
        0.006072979886084795
      ],
      "type": "VEC2"
    },
    {
      "bufferView": 0,
      "componentType": 5125,
      "count": 11112,
      "max": [
        2055
      ],
      "min": [
        0
      ],
      "type": "SCALAR"
    },
    {
      "bufferView": 2,
      "byteOffset": 49344,
      "componentType": 5126,
      "count": 3052,
      "max": [
        0.8193659782409668,
        1,
        0.80834197998046875
      ],
      "min": [
        -0.8193659782409668,
        -0.7298169732093811,
        -0.79704499244689941
      ],
      "type": "VEC3"
    },
    {
      "bufferView": 2,
      "byteOffset": 85968,
      "componentType": 5126,
      "count": 3052,
      "max": [
        0.99994945526123047,
        0.99966448545455933,
        0.99929922819137573
      ],
      "min": [
        -0.99994945526123047,
        -0.99890345335006714,
        -0.99996453523635864
      ],
      "type": "VEC3"
    },
    {
      "bufferView": 3,
      "byteOffset": 32896,
      "componentType": 5126,
      "count": 3052,
      "max": [
        0.99998748302459717,
        0.99963152408599854,
        0.99957281351089478,
        1
      ],
      "min": [
        -1,
        -0.99993562698364258,
        -0.99981421232223511,
        -1
      ],
      "type": "VEC4"
    },
    {
      "bufferView": 1,
      "byteOffset": 16448,
      "componentType": 5126,
      "count": 3052,
      "max": [
        0.99900001287460327,
        0.99048298597335815
      ],
      "min": [
        0.0010000000474974513,
        0.0010000000474974513
      ],
      "type": "VEC2"
    },
    {
      "bufferView": 0,
      "byteOffset": 44448,
      "componentType": 5125,
      "count": 16302,
      "max": [
        3051
      ],
      "min": [
        0
      ],
      "type": "SCALAR"
    },
    {
      "bufferView": 2,
      "byteOffset": 122592,
      "componentType": 5126,
      "count": 779,
      "max": [
        0.53572499752044678,
        -0.14263300597667694,
        0.28691300749778748
      ],
      "min": [
        -0.53664302825927734,
        -0.44512200355529785,
        -0.80834197998046875
      ],
      "type": "VEC3"
    },
    {
      "bufferView": 2,
      "byteOffset": 131940,
      "componentType": 5126,
      "count": 779,
      "max": [
        0.9999423623085022,
        0.99966001510620117,
        0.98430722951889038
      ],
      "min": [
        -0.99983763694763184,
        -0.95826166868209839,
        -0.99988162517547607
      ],
      "type": "VEC3"
    },
    {
      "bufferView": 3,
      "byteOffset": 81728,
      "componentType": 5126,
      "count": 779,
      "max": [
        0.99998384714126587,
        0.99988758563995361,
        0.99967867136001587,
        1
      ],
      "min": [
        -0.26924419403076172,
        -0.99870145320892334,
        -0.99509137868881226,
        -1
      ],
      "type": "VEC4"
    },
    {
      "bufferView": 1,
      "byteOffset": 40864,
      "componentType": 5126,
      "count": 779,
      "max": [
        0.99536901712417603,
        0.98327898979187012
      ],
      "min": [
        0.010238000191748142,
        0.015364400111138821
      ],
      "type": "VEC2"
    },
    {
      "bufferView": 0,
      "byteOffset": 109656,
      "componentType": 5125,
      "count": 4344,
      "max": [
        778
      ],
      "min": [
        0
      ],
      "type": "SCALAR"
    },
    {
      "bufferView": 2,
      "byteOffset": 141288,
      "componentType": 5126,
      "count": 736,
      "max": [
        0.6972770094871521,
        -0.64146602153778076,
        -0.64558100700378418
      ],
      "min": [
        -0.6972770094871521,
        -1,
        -0.78015100955963135
      ],
      "type": "VEC3"
    },
    {
      "bufferView": 2,
      "byteOffset": 150120,
      "componentType": 5126,
      "count": 736,
      "max": [
        0.99973702430725098,
        0.49983081221580505,
        0.99968898296356201
      ],
      "min": [
        -0.99973702430725098,
        -0.99778521060943604,
        -0.9979056715965271
      ],
      "type": "VEC3"
    },
    {
      "bufferView": 3,
      "byteOffset": 94192,
      "componentType": 5126,
      "count": 736,
      "max": [
        0.9908415675163269,
        0.58095693588256836,
        0.73595744371414185,
        1
      ],
      "min": [
        -0.99084162712097168,
        -0.99983072280883789,
        -0.83380126953125,
        -1
      ],
      "type": "VEC4"
    },
    {
      "bufferView": 2,
      "byteOffset": 158952,
      "componentType": 5126,
      "count": 736,
      "max": [
        0.38431373238563538,
        0.29019609093666077,
        0.25098040699958801
      ],
      "min": [
        0,
        0,
        0
      ],
      "type": "VEC3"
    },
    {
      "bufferView": 1,
      "byteOffset": 47096,
      "componentType": 5126,
      "count": 736,
      "max": [
        0.82321298122406006,
        0.32857200503349304
      ],
      "min": [
        0.285086989402771,
        0.0010000000474974513
      ],
      "type": "VEC2"
    },
    {
      "bufferView": 0,
      "byteOffset": 127032,
      "componentType": 5125,
      "count": 3552,
      "max": [
        735
      ],
      "min": [
        0
      ],
      "type": "SCALAR"
    },
    {
      "bufferView": 2,
      "byteOffset": 167784,
      "componentType": 5126,
      "count": 54,
      "max": [
        0.58563202619552612,
        -0.70344501733779907,
        0.5731319785118103
      ],
      "min": [
        -0.58563202619552612,
        -0.99977302551269531,
        0.46505099534988403
      ],
      "type": "VEC3"
    },
    {
      "bufferView": 2,
      "byteOffset": 168432,
      "componentType": 5126,
      "count": 54,
      "max": [
        0.71597617864608765,
        0.047078691422939301,
        0.70641434192657471
      ],
      "min": [
        -0.71597617864608765,
        -0.64794397354125977,
        -0.72300499677658081
      ],
      "type": "VEC3"
    },
    {
      "bufferView": 3,
      "byteOffset": 105968,
      "componentType": 5126,
      "count": 54,
      "max": [
        0.80748587846755981,
        0.46209317445755005,
        0.86912554502487183,
        1
      ],
      "min": [
        -0.80748587846755981,
        -0.42760694026947021,
        -0.8686712384223938,
        -1
      ],
      "type": "VEC4"
    },
    {
      "bufferView": 2,
      "byteOffset": 169080,
      "componentType": 5126,
      "count": 54,
      "max": [
        0,
        0,
        0
      ],
      "min": [
        0,
        0,
        0
      ],
      "type": "VEC3"
    },
    {
      "bufferView": 1,
      "byteOffset": 52984,
      "componentType": 5126,
      "count": 54,
      "max": [
        0.99198698997497559,
        0.39660200476646423
      ],
      "min": [
        0.72643601894378662,
        0.072021700441837311
      ],
      "type": "VEC2"
    },
    {
      "bufferView": 0,
      "byteOffset": 141240,
      "componentType": 5125,
      "count": 204,
      "max": [
        53
      ],
      "min": [
        0
      ],
      "type": "SCALAR"
    },
    {
      "bufferView": 2,
      "byteOffset": 169728,
      "componentType": 5126,
      "count": 256,
      "max": [
        0.70706301927566528,
        -0.090635396540164948,
        -0.49147498607635498
      ],
      "min": [
        -0.70706301927566528,
        -0.63879799842834473,
        -0.79904001951217651
      ],
      "type": "VEC3"
    },
    {
      "bufferView": 2,
      "byteOffset": 172800,
      "componentType": 5126,
      "count": 256,
      "max": [
        0.99998766183853149,
        0.9340553879737854,
        0.00086758669931441545
      ],
      "min": [
        -0.99998766183853149,
        -0.99887746572494507,
        -0.96791410446166992
      ],
      "type": "VEC3"
    },
    {
      "bufferView": 3,
      "byteOffset": 106832,
      "componentType": 5126,
      "count": 256,
      "max": [
        0.99999570846557617,
        0.91185098886489868,
        0.99415403604507446,
        1
      ],
      "min": [
        -0.99999570846557617,
        -0.90236330032348633,
        -0.99642813205718994,
        -1
      ],
      "type": "VEC4"
    },
    {
      "bufferView": 2,
      "byteOffset": 175872,
      "componentType": 5126,
      "count": 256,
      "max": [
        0.38431373238563538,
        0.29019609093666077,
        0.25098040699958801
      ],
      "min": [
        0,
        0,
        0
      ],
      "type": "VEC3"
    },
    {
      "bufferView": 1,
      "byteOffset": 53416,
      "componentType": 5126,
      "count": 256,
      "max": [
        0.28189200162887573,
        0.88385301828384399
      ],
      "min": [
        0.0010000000474974513,
        0.0060729701071977615
      ],
      "type": "VEC2"
    },
    {
      "bufferView": 0,
      "byteOffset": 142056,
      "componentType": 5125,
      "count": 864,
      "max": [
        255
      ],
      "min": [
        0
      ],
      "type": "SCALAR"
    },
    {
      "bufferView": 2,
      "byteOffset": 178944,
      "componentType": 5126,
      "count": 3328,
      "max": [
        0.73921298980712891,
        0.091641902923583984,
        -0.38081100583076477
      ],
      "min": [
        -0.73921298980712891,
        -0.64692902565002441,
        -0.77895700931549072
      ],
      "type": "VEC3"
    },
    {
      "bufferView": 2,
      "byteOffset": 218880,
      "componentType": 5126,
      "count": 3328,
      "max": [
        0.99988836050033569,
        0.99935275316238403,
        0.85331630706787109
      ],
      "min": [
        -0.99988836050033569,
        -0.99748146533966064,
        -0.99809825420379639
      ],
      "type": "VEC3"
    },
    {
      "bufferView": 3,
      "byteOffset": 110928,
      "componentType": 5126,
      "count": 3328,
      "max": [
        0.99953478574752808,
        0.9998854398727417,
        0.99582630395889282,
        1
      ],
      "min": [
        -0.9995347261428833,
        -0.99988460540771484,
        -0.99586361646652222,
        -1
      ],
      "type": "VEC4"
    },
    {
      "bufferView": 2,
      "byteOffset": 258816,
      "componentType": 5126,
      "count": 3328,
      "max": [
        0.38431373238563538,
        0.29019609093666077,
        0.25098040699958801
      ],
      "min": [
        0,
        0,
        0
      ],
      "type": "VEC3"
    },
    {
      "bufferView": 1,
      "byteOffset": 55464,
      "componentType": 5126,
      "count": 3328,
      "max": [
        0.99900001287460327,
        0.9889100193977356
      ],
      "min": [
        0.03143789991736412,
        0.021291900426149368
      ],
      "type": "VEC2"
    },
    {
      "bufferView": 0,
      "byteOffset": 145512,
      "componentType": 5125,
      "count": 13542,
      "max": [
        3327
      ],
      "min": [
        0
      ],
      "type": "SCALAR"
    }
  ],
  "asset": {
    "extras": {
      "author": "Rodrigo Villani (https://sketchfab.com/rvillani)",
      "license": "CC-BY-4.0 (http://creativecommons.org/licenses/by/4.0/)",
      "source": "https://sketchfab.com/models/1fd13a270f2f44dbbf88fd3d4bcbb816",
      "title": "The Matrix Red Chesterfield Chair"
    },
    "generator": "Sketchfab-4.4.0",
    "version": "2.0"
  },
  "bufferViews": [
    {
      "buffer": 0,
      "byteLength": 199680,
      "byteOffset": 0,
      "name": "floatBufferViews",
      "target": 34963
    },
    {
      "buffer": 0,
      "byteLength": 82088,
      "byteOffset": 199680,
      "byteStride": 8,
      "name": "floatBufferViews",
      "target": 34962
    },
    {
      "buffer": 0,
      "byteLength": 298752,
      "byteOffset": 281768,
      "byteStride": 12,
      "name": "floatBufferViews",
      "target": 34962
    },
    {
      "buffer": 0,
      "byteLength": 164176,
      "byteOffset": 580520,
      "byteStride": 16,
      "name": "floatBufferViews",
      "target": 34962
    }
  ],
  "buffers": [
    {
      "byteLength": 744696,
      "uri": "scene.bin"
    }
  ],
  "images": [
    {
      "uri": "textures/Body_metallicRoughness.png"
    },
    {
      "uri": "textures/Body_baseColor.jpeg"
    },
    {
      "uri": "textures/Body_normal.png"
    },
    {
      "uri": "textures/Cushion_metallicRoughness.png"
    },
    {
      "uri": "textures/Cushion_baseColor.jpeg"
    },
    {
      "uri": "textures/Cushion_normal.png"
    },
    {
      "uri": "textures/Wood_metallicRoughness.png"
    },
    {
      "uri": "textures/Wood_baseColor.jpeg"
    },
    {
      "uri": "textures/Wood_normal.png"
    }
  ],
  "materials": [
    {
      "doubleSided": true,
      "name": "Wood",
      "normalTexture": {
        "index": 8,
        "scale": 1,
        "texCoord": 0
      },
      "occlusionTexture": {
        "index": 6,
        "strength": 1,
        "texCoord": 0
      },
      "pbrMetallicRoughness": {
        "baseColorFactor": [
          1,
          1,
          1,
          1
        ],
        "baseColorTexture": {
          "index": 7,
          "texCoord": 0
        },
        "metallicFactor": 1,
        "metallicRoughnessTexture": {
          "index": 6,
          "texCoord": 0
        },
        "roughnessFactor": 1
      }
    },
    {
      "doubleSided": true,
      "name": "Cushion",
      "normalTexture": {
        "index": 5,
        "scale": 1,
        "texCoord": 0
      },
      "occlusionTexture": {
        "index": 3,
        "strength": 1,
        "texCoord": 0
      },
      "pbrMetallicRoughness": {
        "baseColorFactor": [
          1,
          1,
          1,
          1
        ],
        "baseColorTexture": {
          "index": 4,
          "texCoord": 0
        },
        "metallicFactor": 1,
        "metallicRoughnessTexture": {
          "index": 3,
          "texCoord": 0
        },
        "roughnessFactor": 1
      }
    },
    {
      "doubleSided": true,
      "name": "Body",
      "normalTexture": {
        "index": 2,
        "scale": 1,
        "texCoord": 0
      },
      "occlusionTexture": {
        "index": 0,
        "strength": 1,
        "texCoord": 0
      },
      "pbrMetallicRoughness": {
        "baseColorFactor": [
          1,
          1,
          1,
          1
        ],
        "baseColorTexture": {
          "index": 1,
          "texCoord": 0
        },
        "metallicFactor": 1,
        "metallicRoughnessTexture": {
          "index": 0,
          "texCoord": 0
        },
        "roughnessFactor": 1
      }
    }
  ],
  "meshes": [
    {
      "name": "defaultMaterial",
      "primitives": [
        {
          "attributes": {
            "NORMAL": 1,
            "POSITION": 0,
            "TANGENT": 2,
            "TEXCOORD_0": 3
          },
          "indices": 4,
          "material": 0,
          "mode": 4
        }
      ]
    },
    {
      "name": "defaultMaterial",
      "primitives": [
        {
          "attributes": {
            "NORMAL": 6,
            "POSITION": 5,
            "TANGENT": 7,
            "TEXCOORD_0": 8
          },
          "indices": 9,
          "material": 2,
          "mode": 4
        }
      ]
    },
    {
      "name": "defaultMaterial",
      "primitives": [
        {
          "attributes": {
            "NORMAL": 11,
            "POSITION": 10,
            "TANGENT": 12,
            "TEXCOORD_0": 13
          },
          "indices": 14,
          "material": 1,
          "mode": 4
        }
      ]
    },
    {
      "name": "defaultMaterial",
      "primitives": [
        {
          "attributes": {
            "COLOR_0": 18,
            "NORMAL": 16,
            "POSITION": 15,
            "TANGENT": 17,
            "TEXCOORD_0": 19
          },
          "indices": 20,
          "material": 0,
          "mode": 4
        }
      ]
    },
    {
      "name": "defaultMaterial",
      "primitives": [
        {
          "attributes": {
            "COLOR_0": 24,
            "NORMAL": 22,
            "POSITION": 21,
            "TANGENT": 23,
            "TEXCOORD_0": 25
          },
          "indices": 26,
          "material": 0,
          "mode": 4
        }
      ]
    },
    {
      "name": "defaultMaterial",
      "primitives": [
        {
          "attributes": {
            "COLOR_0": 30,
            "NORMAL": 28,
            "POSITION": 27,
            "TANGENT": 29,
            "TEXCOORD_0": 31
          },
          "indices": 32,
          "material": 0,
          "mode": 4
        }
      ]
    },
    {
      "name": "defaultMaterial",
      "primitives": [
        {
          "attributes": {
            "COLOR_0": 36,
            "NORMAL": 34,
            "POSITION": 33,
            "TANGENT": 35,
            "TEXCOORD_0": 37
          },
          "indices": 38,
          "material": 0,
          "mode": 4
        }
      ]
    }
  ],
  "nodes": [
    {
      "children": [
        1
      ],
      "name": "RootNode (gltf orientation matrix)",
      "rotation": [
        -0.70710678118654746,
        -0,
        -0,
        0.70710678118654757
      ]
    },
    {
      "children": [
        2
      ],
      "name": "RootNode (model correction matrix)"
    },
    {
      "children": [
        3,
        5,
        7,
        9,
        11,
        13,
        15
      ],
      "matrix": [
        1,
        0,
        0,
        0,
        0,
        -4.3711390063094768e-08,
        0.999999999999999,
        0,
        0,
        -0.999999999999999,
        -4.3711390063094768e-08,
        0,
        0,
        0,
        0,
        1
      ],
      "name": "Collada visual scene group"
    },
    {
      "children": [
        4
      ],
      "name": "Lions_low"
    },
    {
      "mesh": 0,
      "name": "defaultMaterial"
    },
    {
      "children": [
        6
      ],
      "name": "Body_low"
    },
    {
      "mesh": 1,
      "name": "defaultMaterial"
    },
    {
      "children": [
        8
      ],
      "name": "Cushion_low"
    },
    {
      "mesh": 2,
      "name": "defaultMaterial"
    },
    {
      "children": [
        10
      ],
      "name": "FeetFront_low"
    },
    {
      "mesh": 3,
      "name": "defaultMaterial"
    },
    {
      "children": [
        12
      ],
      "name": "FeetBack_low"
    },
    {
      "mesh": 4,
      "name": "defaultMaterial"
    },
    {
      "children": [
        14
      ],
      "name": "Wood_low"
    },
    {
      "mesh": 5,
      "name": "defaultMaterial"
    },
    {
      "children": [
        16
      ],
      "name": "Balls_low"
    },
    {
      "mesh": 6,
      "name": "defaultMaterial"
    }
  ],
  "samplers": [
    {
      "magFilter": 9729,
      "minFilter": 9987,
      "wrapS": 10497,
      "wrapT": 10497
    }
  ],
  "scene": 0,
  "scenes": [
    {
      "name": "OSG_Scene",
      "nodes": [
        0
      ]
    }
  ],
  "textures": [
    {
      "sampler": 0,
      "source": 0
    },
    {
      "sampler": 0,
      "source": 1
    },
    {
      "sampler": 0,
      "source": 2
    },
    {
      "sampler": 0,
      "source": 3
    },
    {
      "sampler": 0,
      "source": 4
    },
    {
      "sampler": 0,
      "source": 5
    },
    {
      "sampler": 0,
      "source": 6
    },
    {
      "sampler": 0,
      "source": 7
    },
    {
      "sampler": 0,
      "source": 8
    }
  ]
}

